<svg id="Layer_1" data-name="Layer 1" xmlns="http://www.w3.org/2000/svg" viewBox="0 0 2499.75 606"><defs><style>.cls-1{fill:#fff;}</style></defs><path class="cls-1" d="M1098.5,66.66A227,227,0,0,0,937.91,0H606.12V606H833.37V227.25h72.72c19.7,0,39.39,7.57,53,22.72l78.78,78.79c13.63,13.63,22.72,33.33,22.72,53V606h227.25V350a227,227,0,0,0-66.66-160.59ZM2272.62,0V224.22c0,19.69-7.57,39.39-22.72,53L2171.12,356c-13.63,13.64-33.33,22.73-53,22.73H2009c22.72-36.36,36.35-78.78,36.35-122.72V0H1818.12V224.22c0,19.69-7.57,39.39-22.72,53L1716.62,356c-13.64,13.64-33.33,22.73-53,22.73h-72.73V0H1363.62V606h331.79A227,227,0,0,0,1856,539.34l75.75-75.75V606h218.16a227,227,0,0,0,160.59-66.66l122.72-122.72A227,227,0,0,0,2499.87,256V0ZM.12,227.25h151.5V606H378.87V227.25h151.5V0H.12Z" transform="translate(-0.13)"/></svg>